<?xml version="1.0" encoding="utf-8"?>
<!DOCTYPE svg PUBLIC "-//W3C//DTD SVG 1.1//EN" "http://www.w3.org/Graphics/SVG/1.1/DTD/svg11.dtd">
<svg version="1.1" id="Layer_1" xmlns="http://www.w3.org/2000/svg" xmlns:xlink="http://www.w3.org/1999/xlink" x="0px" y="0px"
	 width="612px" height="792px" viewBox="0 0 612 792" xml:space="preserve">
<path fill-rule="evenodd" clip-rule="evenodd" fill="#56310C" d="M395.666,407.729c-0.021,48.01-38.811,86.699-86.891,86.668
	c-47.998-0.031-86.686-38.851-86.632-86.927c0.053-47.899,38.783-86.513,86.771-86.511
	C356.992,320.962,395.688,359.666,395.666,407.729z"/>
<path fill-rule="evenodd" clip-rule="evenodd" fill="#F2C31A" d="M209.602,343.176c2.195,1.565,4.293,3.295,6.606,4.66
	c4.402,2.598,8.92,4.998,13.404,7.456c1.484,0.814,1.759,1.303,1.08,2.859c-0.665,1.524-1.482,2.982-2.25,4.505
	c-0.275-0.09-0.544-0.102-0.7-0.241c-7.081-6.307-15.561-10.014-24.446-12.799c-6.395-2.005-12.94-3.531-19.431-5.223
	c-0.948-0.248-2.311-0.867-2.808,0.318c-0.575,1.371,1.08,1.481,1.848,1.993c5.786,3.858,11.587,7.692,17.411,11.494
	c5.919,3.864,12.1,7.204,19.095,8.676c2.002,0.421,4.082,0.473,6.121,0.694c-0.684,2.795-1.365,5.641-2.08,8.478
	c-0.307,1.22-1.263,1.736-2.365,2.152c-3.201,1.208-6.449,0.757-9.701,0.379c-0.791-0.092-1.581-0.317-2.367-0.299
	c-9.429,0.219-18.366-2.027-27.133-5.249c-7.008-2.575-13.829-5.537-19.748-10.152c-2.755-2.148-5.249-4.665-7.678-7.19
	c-3.045-3.166-6.137-6.336-8.791-9.822c-4.646-6.103-9.124-12.347-13.396-18.717c-4.66-6.948-10.315-13.024-15.926-19.156
	c-1.781-1.946-3.646-3.815-5.473-5.719c-0.222-0.23-0.463-0.443-0.67-0.687c-1.008-1.184-1.937-2.44-1.373-4.104
	c0.598-1.759,2.255-2.063,3.737-2.062c3.508,0,7.047,0.015,10.52,0.449c11.015,1.378,21.997,3.006,33.008,4.414
	c3.163,0.404,6.379,0.378,9.57,0.568c12.538,0.744,24.375,3.857,35.453,9.947c8.491,4.668,15.794,10.832,22.968,17.205
	c1.911,1.698,3.781,3.455,5.544,5.304c2.751,2.885,5.411,5.857,8.073,8.825c0.834,0.93,0.806,2.092,0.375,3.175
	c-0.619,1.555-1.294,3.097-2.07,4.579c-0.583,1.115-1.337,1.156-2.896,0.579c-4.644-1.718-9.29-3.428-13.957-5.08
	c-2.333-0.826-4.71-1.528-7.074-2.266c-0.737-0.23-1.496-0.391-2.245-0.583C209.76,342.75,209.681,342.963,209.602,343.176z"/>
<path fill-rule="evenodd" clip-rule="evenodd" fill="#F2C31A" d="M317.817,497.012c2.813-0.672,5.52-1.305,8.22-1.97
	c1.231-0.303,2.14,0.187,3.028,0.982c2.29,2.05,3.449,4.747,4.5,7.529c0.677,1.789,1.328,3.598,2.155,5.317
	c3.365,6.994,5.173,14.414,6.211,22.058c0.755,5.553,1.162,11.116,1.011,16.732c-0.146,5.487-1.051,10.814-2.957,15.949
	c-1.752,4.718-3.38,9.509-5.537,14.042c-3.192,6.706-6.593,13.335-10.294,19.772c-4.051,7.045-7.008,14.529-9.876,22.074
	c-1.22,3.212-2.328,6.466-3.486,9.701c-0.027,0.075-0.038,0.156-0.07,0.229c-0.636,1.477-1.203,3.055-3.113,3.283
	c-1.965,0.236-2.815-1.214-3.646-2.599c-2.523-4.214-4.083-8.841-5.686-13.444c-3.362-9.658-6.611-19.357-10.085-28.975
	c-1.816-5.028-4.173-9.86-5.998-14.885c-3.172-8.733-4.305-17.793-4.186-27.09c0.133-10.43,2.481-20.416,5.302-30.346
	c0.655-2.306,1.278-4.625,2.053-6.891c0.825-2.412,1.812-4.769,2.728-7.149c0.401-1.041,0.857-2.064,1.191-3.126
	c0.465-1.481,1.454-2.268,2.957-2.395c1.59-0.135,3.184-0.242,4.778-0.276c1.236-0.025,1.891,0.679,2.06,2.169
	c0.405,3.57,0.699,7.154,1.169,10.716c0.564,4.276,1.26,8.535,1.915,12.798c0.052,0.34,0.227,0.66,0.532,1.514
	c1.138-3.575,1.606-6.688,1.763-9.837c0.234-4.709,0.366-9.422,0.538-14.134c0.062-1.683,0.7-2.26,2.644-2.27
	c0.713-0.004,1.426,0.178,2.141,0.187c0.703,0.01,1.407-0.092,2.379-0.164c-0.11,0.738-0.195,1.321-0.285,1.902
	c-0.375,2.438-0.913,4.865-1.099,7.317c-0.816,10.811,0.852,21.352,3.585,31.775c0.606,2.313,0.859,4.717,1.412,7.046
	c0.234,0.983,0.217,2.299,1.873,2.631c0.191-0.522,0.471-0.992,0.526-1.486c1.012-8.971,2.063-17.938,2.964-26.921
	c0.547-5.448,0.093-10.871-1.282-16.176C319.356,500.693,318.505,498.872,317.817,497.012z"/>
<path fill-rule="evenodd" clip-rule="evenodd" fill="#F2C31A" d="M406.014,470.323c-1.743-1.473-3.369-3.122-5.254-4.384
	c-4.581-3.069-9.268-5.982-13.942-8.909c-1.677-1.05-1.948-1.551-1.046-3.256c0.74-1.4,1.63-2.722,2.492-4.141
	c0.343,0.212,0.647,0.334,0.865,0.545c6.735,6.54,14.93,10.631,23.572,13.922c3.13,1.191,6.381,2.067,9.57,3.104
	c2.507,0.814,5.001,1.665,7.508,2.479c1.063,0.345,2.127,0.736,3.222,0.907c0.504,0.079,1.082-0.321,1.627-0.504
	c-0.252-0.448-0.395-1.049-0.773-1.32c-8.31-5.969-16.538-12.058-25.015-17.78c-5.071-3.425-10.761-5.617-17-5.993
	c-0.141-0.009-0.274-0.141-0.411-0.217c0.816-2.741,1.535-5.518,2.508-8.201c0.279-0.771,1.195-1.613,1.983-1.832
	c1.668-0.463,3.469-0.849,5.169-0.708c4.452,0.367,8.884,1.002,13.314,1.59c8.738,1.158,16.872,4.263,24.781,7.971
	c6.39,2.995,12.47,6.531,17.584,11.505c0.916,0.891,1.812,1.807,2.665,2.757c8.7,9.686,15.847,20.484,22.374,31.69
	c4.01,6.885,8.925,13.063,13.961,19.173c2.187,2.653,4.478,5.22,6.678,7.862c0.606,0.729,1.19,1.531,1.551,2.397
	c0.774,1.857,0.02,3.375-1.924,3.865c-0.989,0.249-2.075,0.39-3.08,0.267c-4.911-0.604-9.839-1.152-14.707-2.02
	c-9.357-1.666-18.665-3.606-28.021-5.281c-3.453-0.618-6.991-0.74-10.476-1.208c-11.461-1.536-22.232-5.033-32.173-11.076
	c-8.902-5.412-16.475-12.351-23.629-19.816c-1.604-1.675-3.311-3.263-4.811-5.025c-2.533-2.977-4.954-6.051-7.389-9.109
	c-0.646-0.813-0.717-1.806-0.286-2.731c0.772-1.663,1.557-3.33,2.481-4.91c0.579-0.989,1.473-0.948,2.987-0.305
	c5.146,2.187,10.302,4.353,15.467,6.495c1.919,0.795,3.869,1.515,5.815,2.24c0.48,0.18,1.002,0.251,1.505,0.371
	C405.844,470.599,405.929,470.461,406.014,470.323z"/>
<path fill-rule="evenodd" clip-rule="evenodd" fill="#F2C31A" d="M314.069,293.021c-0.322,2.525-0.823,5.042-0.929,7.577
	c-0.22,5.27-0.242,10.549-0.321,15.824c-0.027,1.828-0.359,2.273-2.199,2.357c-1.574,0.071-3.155,0.015-4.936,0.015
	c0.289-1.45,0.644-2.816,0.825-4.205c0.825-6.305,0.7-12.634-0.283-18.882c-0.817-5.196-2.172-10.308-3.313-15.452
	c-0.639-2.885-1.252-5.779-2.028-8.627c-0.301-1.106-0.123-3.069-1.86-2.813c-1.364,0.201-0.639,1.9-0.74,2.925
	c-0.595,6.044-1.087,12.098-1.681,18.142c-0.753,7.68-0.995,15.333,1.179,22.846c0.591,2.043,1.494,3.996,2.252,5.987
	c-2.753,0.739-5.559,1.519-8.38,2.238c-1.11,0.283-1.992-0.266-2.823-0.971c-2.274-1.932-3.477-4.53-4.606-7.192
	c-0.903-2.13-1.799-4.269-2.829-6.338c-3.458-6.948-5.343-14.351-6.552-21.967c-0.867-5.458-1.401-10.936-1.34-16.468
	c0.064-5.891,1.086-11.598,3.138-17.125c1.668-4.494,3.015-9.129,4.989-13.481c3.234-7.13,6.744-14.144,10.364-21.089
	c2.711-5.201,4.762-10.648,6.717-16.143c1.581-4.441,2.98-8.946,4.483-13.416c0.278-0.827,0.572-1.677,1.03-2.409
	c1.332-2.133,3.258-2.309,4.913-0.463c0.581,0.647,1.119,1.381,1.482,2.166c1.847,3.984,3.805,7.93,5.397,12.017
	c3.164,8.114,6.063,16.33,9.178,24.463c1.198,3.129,2.588,6.196,4.067,9.204c3.331,6.776,5.994,13.807,7.53,21.184
	c2.069,9.937,2.313,19.937,0.71,30.026c-1.347,8.474-3.484,16.737-5.769,24.973c-0.892,3.217-2.261,6.303-3.447,9.436
	c-0.446,1.177-1.473,1.673-2.632,1.812c-1.584,0.189-3.179,0.32-4.772,0.387c-1.209,0.051-1.821-0.563-2.015-1.895
	c-0.606-4.189-1.139-8.39-1.809-12.569c-0.606-3.786-1.351-7.549-2.053-11.32c-0.053-0.281-0.254-0.535-0.387-0.802
	C314.438,292.986,314.254,293.003,314.069,293.021z"/>
<path fill-rule="evenodd" clip-rule="evenodd" fill="#F2C31A" d="M205.207,459.847c1.931-0.687,3.999-1.127,5.767-2.108
	c4.891-2.714,9.683-5.61,14.461-8.523c2.075-1.265,2.741-1.228,4.051,0.813c0.728,1.132,1.422,2.284,2.205,3.545
	c-0.285,0.198-0.502,0.441-0.769,0.52c-6.104,1.802-11.166,5.488-16.238,9.102c-5.962,4.247-10.896,9.624-15.875,14.939
	c-1.419,1.515-2.976,2.9-4.446,4.367c-0.564,0.563-1.148,1.14-1.562,1.81c-0.248,0.4-0.184,0.994-0.26,1.5
	c0.5,0.025,1,0.056,1.5,0.07c0.069,0.002,0.139-0.073,0.21-0.11c7.396-3.794,14.826-7.526,22.18-11.402
	c5.115-2.695,9.894-5.926,13.835-10.212c1.599-1.738,2.923-3.729,4.356-5.583c2.026,1.922,4.097,3.882,6.162,5.847
	c0.907,0.863,1.001,1.919,0.805,3.096c-0.518,3.104-2.191,5.621-4.009,8.072c-0.666,0.897-1.465,1.721-1.997,2.69
	c-4.938,9.015-12.08,16.063-19.956,22.455c-6.242,5.067-12.807,9.691-20.608,11.977c-8.202,2.402-16.534,4.359-25.078,5.175
	c-7.877,0.752-15.824,1.048-23.623,2.285c-8.427,1.336-16.716,3.536-25.068,5.346c-1.009,0.219-2.036,0.511-3.053,0.501
	c-2.442-0.024-3.769-1.775-2.806-4.01c1.068-2.479,2.32-4.947,3.903-7.122c4.376-6.01,8.973-11.858,13.471-17.78
	c4.933-6.493,9.84-12.985,14.231-19.889c6.649-10.453,15.237-19.05,25.899-25.56c8.54-5.214,17.763-8.716,27.24-11.684
	c2.517-0.788,5.012-1.665,7.567-2.298c3.558-0.882,7.148-1.655,10.758-2.284c0.801-0.14,2.004,0.264,2.562,0.854
	c1.306,1.379,2.401,2.978,3.448,4.575c0.656,1,0.005,1.792-0.789,2.463c-4.213,3.559-8.431,7.11-12.615,10.703
	c-1.638,1.405-3.209,2.891-4.772,4.38c-0.438,0.417-0.738,0.978-1.102,1.473c-0.063,0.019-0.127,0.038-0.191,0.057
	c0.063,0.05,0.127,0.099,0.19,0.148C205.199,459.977,205.203,459.912,205.207,459.847z"/>
<path fill-rule="evenodd" clip-rule="evenodd" fill="#F2C31A" d="M409.015,349.325c-1.96,0.801-4.02,1.424-5.862,2.438
	c-4.899,2.698-9.727,5.529-14.539,8.382c-1.928,1.143-2.505,1.155-3.722-0.659c-0.832-1.24-1.546-2.558-2.33-3.87
	c0.328-0.218,0.5-0.391,0.707-0.462c10.207-3.539,18.521-9.958,26.198-17.306c3.753-3.592,7.372-7.325,11.033-11.012
	c0.56-0.563,1.075-1.19,1.496-1.861c0.172-0.274,0.183-0.958,0.01-1.075c-0.329-0.221-0.841-0.191-1.279-0.216
	c-0.135-0.008-0.274,0.152-0.417,0.223c-7.513,3.74-15.064,7.406-22.527,11.244c-5.212,2.681-10.074,5.931-14.068,10.288
	c-1.492,1.628-2.739,3.482-4.056,5.178c-1.995-1.938-4.043-3.937-6.103-5.922c-0.996-0.959-0.959-2.111-0.722-3.338
	c0.579-3.001,2.23-5.439,4.046-7.793c0.635-0.822,1.396-1.57,1.899-2.465c5.156-9.175,12.533-16.319,20.719-22.719
	c5.754-4.499,11.795-8.539,18.776-10.924c2.11-0.721,4.27-1.346,6.451-1.805c5.157-1.085,10.316-2.204,15.522-3.005
	c4.179-0.643,8.424-0.867,12.644-1.225c5.257-0.445,10.579-0.468,15.763-1.335c8.501-1.423,16.911-3.391,25.366-5.099
	c1.084-0.219,2.216-0.422,3.307-0.349c1.944,0.129,2.986,1.656,2.462,3.543c-0.273,0.987-0.691,1.984-1.261,2.832
	c-2.496,3.71-4.932,7.476-7.649,11.021c-5.156,6.727-10.531,13.286-15.731,19.98c-2.008,2.584-3.906,5.272-5.645,8.045
	c-3.588,5.72-7.794,10.945-12.404,15.844c-4.188,4.451-9.087,8.045-14.218,11.342c-9.041,5.81-19.005,9.428-29.234,12.431
	c-2.069,0.608-4.115,1.313-6.207,1.827c-2.787,0.686-5.608,1.234-8.417,1.829c-0.856,0.182-1.746,0.246-2.577,0.501
	c-1.772,0.545-3.151,0.031-4.212-1.416c-0.85-1.159-1.691-2.33-2.454-3.547c-0.701-1.12-0.459-1.917,0.703-2.883
	c4.304-3.575,8.616-7.14,12.901-10.736c1.593-1.336,3.132-2.737,4.672-4.134c0.446-0.406,0.812-0.902,1.214-1.357
	C409.185,349.615,409.1,349.47,409.015,349.325z"/>
<path fill-rule="evenodd" clip-rule="evenodd" fill="#F2C31A" d="M415.118,399.76c-3.063-0.208-6.025-0.033-8.935,0.7
	c-1.005,0.253-2.023,0.452-3.038,0.668c-2.138,0.454-3.756-0.391-5.001-2.068c-0.57-0.769-1.138-1.557-1.574-2.404
	c-0.797-1.548-0.474-3.445,0.912-4.494c1.651-1.249,3.362-2.472,5.195-3.418c8.943-4.62,18.285-8.163,28.407-8.903
	c6.941-0.507,13.903-0.306,20.729,1.463c3.246,0.841,6.541,1.496,9.798,2.3c1.627,0.401,3.26,0.842,4.819,1.447
	c8.864,3.433,17.961,6.319,26.368,10.845c5.013,2.7,10.298,4.743,15.557,6.866c0.866,0.35,1.727,0.883,2.385,1.536
	c1.129,1.119,0.987,2.441-0.397,3.177c-4.01,2.128-7.773,4.726-12.271,5.92c-3.313,0.88-6.497,2.23-9.755,3.323
	c-10.679,3.582-21.33,7.264-32.248,10.059c-4.944,1.267-9.988,2.149-15.002,3.129c-1.164,0.228-2.394,0.234-3.587,0.184
	c-9.111-0.387-18.199-0.979-27.036-3.493c-0.997-0.283-2.019-0.543-2.953-0.978c-3.042-1.416-6.068-2.87-9.063-4.386
	c-1.685-0.854-1.787-2.35-0.188-3.299c1.71-1.017,3.465-2.069,5.34-2.677c6.307-2.043,12.676-3.893,19.021-5.82
	c0.517-0.157,1.025-0.344,1.536-0.956c-1.189-0.014-2.381-0.062-3.57-0.031c-1.277,0.031-2.554,0.128-3.829,0.212
	c-3.668,0.241-7.335,0.494-11.003,0.73c-0.478,0.031-0.96,0.01-1.438-0.016c-0.905-0.047-1.849-0.172-2.188-1.149
	c-0.385-1.109,0.343-1.865,1.193-2.36c2.689-1.565,5.397-3.101,8.144-4.563C412.611,400.681,413.891,400.268,415.118,399.76z"/>
<path fill-rule="evenodd" clip-rule="evenodd" fill="#F2C31A" d="M247.555,508.987c1.416-3.194,2.827-6.392,4.249-9.583
	c0.943-2.117,1.882-4.236,2.863-6.337c0.268-0.572,0.609-1.145,1.039-1.602c0.832-0.882,2.041-0.726,2.561,0.372
	c0.334,0.705,0.547,1.526,0.579,2.305c0.121,2.946,0.148,5.896,0.203,8.844c0.016,0.838,0.002,1.676,0.002,3.077
	c1.437-2.542,2.136-4.799,2.862-7.04c0.171-0.529,0.224-1.096,0.356-1.64c1.207-4.929,1.977-5.459,7.29-5.76
	c1.796-0.103,3.447,1.221,3.782,2.959c0.392,2.034,0.819,4.108,0.812,6.164c-0.024,7.366-0.451,14.703-2.559,21.838
	c-1.115,3.771-2.636,7.352-4.51,10.818c-2.564,4.743-5.749,8.979-9.288,13.045c-9.318,10.704-20.293,19.426-31.869,27.494
	c-3.271,2.279-6.306,4.896-9.474,7.325c-0.819,0.628-1.673,1.273-2.614,1.663c-1.767,0.731-3.101-0.056-3.168-1.955
	c-0.154-4.382-0.524-8.735,0.196-13.154c1.234-7.565,2.025-15.203,3.063-22.803c0.389-2.849,0.852-5.695,1.449-8.507
	c1.392-6.562,2.796-13.123,4.377-19.641c0.733-3.021,1.906-5.911,3.708-8.533c1.537-2.236,2.888-4.606,4.226-6.971
	c2.709-4.788,6.626-8.604,10.163-12.723c0.719-0.836,1.659-1.504,2.566-2.153c2.146-1.535,4.316-3.036,6.508-4.504
	c1.798-1.204,3.19-0.603,3.277,1.527c0.094,2.308,0.16,4.661-0.183,6.931c-0.859,5.687-1.958,11.337-2.952,17.004
	c-0.081,0.461-0.089,0.935-0.132,1.402C247.143,508.896,247.349,508.942,247.555,508.987z"/>
<path fill-rule="evenodd" clip-rule="evenodd" fill="#F2C31A" d="M371.377,496.709c-1.459-1.88-2.915-3.762-4.383-5.636
	c-0.145-0.184-0.378-0.297-0.545-0.467c-3.718-3.79-3.555-4.898-0.965-9.433c0.834-1.46,2.758-2.111,4.386-1.525
	c1.722,0.619,3.446,1.319,5.021,2.237c8.069,4.699,15.514,10.194,21.09,17.82c3.497,4.782,6.502,9.883,8.373,15.55
	c1.353,4.096,2.756,8.192,3.768,12.378c1.049,4.337,1.693,8.774,2.442,13.181c1.303,7.652,1.909,15.367,2.104,23.129
	c0.063,2.538,0.702,5.058,1.017,7.594c0.187,1.503,0.404,3.026,0.344,4.529c-0.098,2.404-1.503,2.98-3.729,2.006
	c-6.335-2.771-11.352-7.393-16.622-11.649c-8.764-7.079-17.434-14.278-25.645-21.999c-3.022-2.842-5.829-5.923-8.624-8.995
	c-3.276-3.603-4.864-8.227-7.223-12.386c-2.746-4.841-4.215-10.182-5.723-15.474c-0.69-2.424-0.729-5.042-0.984-7.579
	c-0.136-1.349-0.088-2.716-0.147-4.073c-0.043-0.967-0.164-1.933,0.84-2.563c1.049-0.658,1.87,0.014,2.637,0.515
	c2.198,1.438,4.467,2.809,6.481,4.479c3.688,3.061,7.213,6.32,10.812,9.49c0.471,0.415,0.976,0.792,1.846,1.008
	c-0.184-0.509-0.272-1.082-0.566-1.516c-1.702-2.513-3.471-4.98-5.183-7.487c-1.307-1.913-2.59-3.843-3.825-5.802
	c-0.466-0.74-0.902-1.623-0.188-2.441c0.759-0.87,1.769-0.707,2.647-0.248c2.686,1.4,5.341,2.86,7.993,4.323
	c0.763,0.421,1.479,0.929,2.216,1.395c0.181,0.055,0.36,0.112,0.54,0.17C371.515,497.063,371.446,496.887,371.377,496.709z
	 M368.161,509.604c0.054-0.048,0.107-0.096,0.161-0.144c-0.048-0.053-0.097-0.106-0.146-0.159c-0.05,0.052-0.139,0.104-0.139,0.156
	C368.037,509.511,368.124,509.564,368.161,509.604z"/>
<path fill-rule="evenodd" clip-rule="evenodd" fill="#F2C31A" d="M191.442,404.965c3.323-0.345,6.647-0.687,9.97-1.036
	c2.382-0.251,4.763-0.518,7.146-0.765c0.396-0.041,0.8-0.031,1.199-0.023c0.89,0.018,1.835-0.005,2.155,1.083
	c0.293,0.997-0.257,1.746-0.995,2.262c-2.354,1.646-4.73,3.263-7.146,4.815c-0.987,0.635-2.098,1.077-3.297,1.68
	c1.867,0.458,5.005,0.034,7.708-0.836c1.282-0.413,2.621-0.659,3.945-0.92c0.452-0.089,0.963-0.081,1.408,0.033
	c2.401,0.616,5.062,4.826,4.5,7.171c-0.12,0.503-0.5,1.007-0.892,1.367c-1.056,0.974-2.099,1.997-3.293,2.775
	c-7.555,4.928-15.574,8.874-24.497,10.565c-3.426,0.649-6.978,0.619-10.465,0.969c-8.06,0.807-15.788-1.327-23.368-3.328
	c-8.075-2.132-15.878-5.365-23.692-8.394c-5.8-2.247-11.168-5.538-17.201-7.274c-1.217-0.351-2.411-0.9-3.498-1.555
	c-2.039-1.226-1.935-2.85-0.093-4.299c5.37-4.224,11.729-6.461,17.899-9.067c10.301-4.353,20.65-8.599,31.261-12.151
	c4.009-1.342,8.111-2.424,12.206-3.49c4.562-1.187,9.237-0.414,13.859-0.584c6.139-0.227,12.063,1.22,17.997,2.478
	c1.693,0.359,3.293,1.203,4.901,1.905c1.83,0.799,3.635,1.659,5.424,2.547c1.854,0.92,2.049,2.32,0.38,3.444
	c-1.715,1.156-3.48,2.333-5.385,3.096c-5.488,2.195-11.058,4.188-16.596,6.258c-0.574,0.215-1.152,0.418-1.729,0.626
	C191.316,404.533,191.379,404.749,191.442,404.965z"/>
<path fill-rule="evenodd" clip-rule="evenodd" fill="#F2C31A" d="M247.813,316.896c1.378,2.037,2.751,4.077,4.14,6.106
	c0.178,0.26,0.452,0.452,0.662,0.692c2.778,3.176,2.778,6.367-0.25,9.316c-1.095,1.066-2.555,1.937-4.295,1.032
	c-1.062-0.552-2.223-0.94-3.221-1.586c-8.604-5.571-16.309-12.128-21.746-20.95c-4.097-6.648-6.634-13.901-8.316-21.563
	c-3.005-13.691-3.581-27.522-3.367-41.45c0.045-2.946-0.238-5.896-0.347-8.845c-0.059-1.596-0.2-3.205-0.072-4.79
	c0.205-2.536,1.797-3.256,3.969-1.933c4.17,2.541,8.06,5.376,11.541,8.883c6.359,6.404,13.088,12.439,19.521,18.771
	c5.524,5.438,10.747,11.171,15.558,17.259c1.834,2.321,3.421,4.791,4.462,7.615c1.02,2.769,2.236,5.469,3.451,8.162
	c2.224,4.933,3.253,10.222,4.128,15.471c0.609,3.654,0.196,7.493,0.099,11.246c-0.044,1.711-1.351,2.384-2.856,1.481
	c-1.703-1.022-3.441-2.094-4.861-3.459c-3.917-3.766-7.675-7.697-11.501-11.558c-0.606-0.612-1.243-1.195-2.236-1.629
	c0.095,0.46,0.08,0.981,0.301,1.369c1.503,2.636,3.07,5.234,4.587,7.862c1.157,2.006,2.289,4.027,3.393,6.062
	c0.429,0.791,0.724,1.698,0.037,2.468c-0.792,0.888-1.795,0.588-2.64,0.085c-2.33-1.387-4.634-2.818-6.908-4.295
	c-0.999-0.649-1.899-1.449-2.846-2.179c-0.224-0.137-0.447-0.274-0.67-0.413C247.625,316.381,247.719,316.639,247.813,316.896z
	 M252.158,304.561c-0.044-0.053-0.088-0.107-0.132-0.161c-0.051,0.047-0.102,0.095-0.152,0.142c0.067,0.055,0.135,0.11,0.203,0.166
	C252.104,304.659,252.131,304.61,252.158,304.561z"/>
<path fill-rule="evenodd" clip-rule="evenodd" fill="#F2C31A" d="M366.544,309.308c-0.917,1.653-1.883,3.282-2.742,4.965
	c-1.525,2.989-2.965,6.022-4.486,9.013c-0.469,0.921-1.005,1.834-1.657,2.631c-1.125,1.374-2.461,1.07-2.999-0.643
	c-0.165-0.523-0.224-1.105-0.206-1.656c0.108-3.426,0.251-6.851,0.385-10.276c0.02-0.474,0.059-0.946-0.072-1.48
	c-1.527,2.323-2.679,4.811-3.456,7.477c-0.245,0.84-0.44,1.707-0.788,2.505c-1.573,3.611-6.524,4.783-9.571,2.245
	c-0.442-0.368-0.839-1.025-0.893-1.583c-0.242-2.536-0.577-5.094-0.47-7.627c0.256-5.996,1.041-11.929,2.748-17.72
	c1.456-4.942,3.623-9.507,6.301-13.919c2.981-4.915,6.809-9.03,10.801-13.081c9.952-10.098,21.43-18.143,33.544-25.375
	c2.119-1.265,4.063-2.824,6.084-4.253c1.305-0.922,2.552-1.938,3.914-2.763c2.675-1.618,4.078-0.678,4.329,2.39
	c0.532,6.494-1.071,12.706-2.239,18.97c-1.419,7.611-2.931,15.208-4.589,22.771c-1.589,7.254-3.533,14.427-5.961,21.453
	c-0.966,2.795-2.217,5.458-4.044,7.85c-1.598,2.091-3.046,4.305-4.455,6.532c-2.943,4.65-7.079,8.226-10.813,12.164
	c-0.436,0.46-0.94,0.878-1.476,1.218c-2.767,1.754-5.526,3.522-8.343,5.193c-1.665,0.988-2.781,0.333-2.879-1.611
	c-0.154-3.048,0.102-6.06,0.827-9.039c1.171-4.811,2.275-9.639,3.403-14.46c0.124-0.532,0.211-1.073,0.314-1.61
	C366.885,309.492,366.715,309.4,366.544,309.308z"/>
<path fill-rule="evenodd" clip-rule="evenodd" fill="#F2C31A" d="M248.197,207.608c0.736,0.413,1.265,0.617,1.681,0.958
	c7.367,6.029,14.822,12.037,19.486,20.556c2.212,4.041,3.772,8.442,5.524,12.723c0.212,0.519-0.108,1.356-0.38,1.956
	c-3.33,7.313-5.75,14.888-6.527,22.917c-0.191,1.979-0.098,3.991-0.033,5.985c0.048,1.513-0.056,3.251-1.574,3.629
	c-1.64,0.408-2.408-1.287-2.943-2.618c-2.78-6.919-7.449-12.428-12.907-17.334c-1.779-1.599-3.733-3.002-5.582-4.525
	c-0.923-0.761-1.921-1.488-2.64-2.42c-0.595-0.771-1.136-1.808-1.174-2.749c-0.203-4.942-0.322-9.892-0.312-14.838
	c0.016-8.092,2.66-15.518,6.061-22.72C247.146,208.554,247.731,208.131,248.197,207.608z"/>
<path fill-rule="evenodd" clip-rule="evenodd" fill="#F2C31A" d="M345.169,279.247c-1.24-0.799-1.35-2.051-1.235-3.361
	c0.139-1.591,0.395-3.174,0.482-4.767c0.396-7.233-1.18-14.134-3.604-20.884c-0.676-1.881-1.383-3.75-2.022-5.643
	c-0.597-1.766-0.33-3.341,0.71-4.989c2.431-3.848,4.616-7.849,6.971-11.746c4.156-6.878,10.231-11.79,16.796-16.173
	c1.63-1.088,2.45-0.881,3.096,0.964c3.17,9.063,6.442,18.154,5.883,27.957c-0.259,4.526-1.189,9.017-1.906,13.509
	c-0.081,0.502-0.684,1.028-1.173,1.343c-6.246,4.01-11.662,8.972-16.427,14.617c-1.737,2.059-3.035,4.495-4.473,6.797
	C347.251,278.498,347.226,278.582,345.169,279.247z"/>
<path fill-rule="evenodd" clip-rule="evenodd" fill="#F2C31A" d="M269.454,544.385c-0.14,0.833-0.212,1.307-0.298,1.778
	c-1.467,8.012-0.125,15.742,2.331,23.363c0.71,2.203,1.516,4.387,2.032,6.636c0.209,0.913,0.044,2.147-0.435,2.944
	c-2.55,4.242-5.209,8.421-7.914,12.567c-3.199,4.903-7.568,8.627-12.341,11.914c-0.856,0.589-1.725,1.159-2.59,1.734
	c-2.694,1.787-3.175,1.716-4.093-1.478c-1.433-4.984-2.72-10.016-3.897-15.066c-0.967-4.151-1.187-8.396-0.537-12.624
	c0.534-3.472,1.208-6.925,1.958-10.355c0.14-0.64,0.844-1.287,1.452-1.673c6.324-4.014,11.98-8.792,16.708-14.61
	c1.253-1.542,2.227-3.311,3.329-4.976c0.263-0.397,0.436-0.952,0.805-1.163c0.718-0.41,1.687-1.027,2.29-0.815
	C268.864,542.776,269.158,543.891,269.454,544.385z"/>
<path fill-rule="evenodd" clip-rule="evenodd" fill="#F2C31A" d="M438.656,437.017c0.952-1.271,2.169-1.499,3.494-1.392
	c8.128,0.66,15.666-1.525,22.986-4.756c2.118-0.935,4.18-2.024,6.357-2.789c0.962-0.338,2.314-0.397,3.203,0.022
	c5.409,2.563,10.86,5.081,16.057,8.038c5.494,3.127,9.586,7.913,13.452,12.836c0.929,1.184,0.752,1.869-0.82,2.59
	c-3.339,1.529-6.691,3.066-10.146,4.301c-5.112,1.825-10.271,3.662-15.802,3.654c-3.187-0.004-6.375-0.401-9.56-0.373
	c-2.877,0.024-4.626-1.275-6.514-3.412c-3.37-3.815-7.263-7.184-11.06-10.602c-2.635-2.373-5.847-3.894-9.067-5.318
	C439.986,439.262,439.07,438.522,438.656,437.017z"/>
<path fill-rule="evenodd" clip-rule="evenodd" fill="#F2C31A" d="M435.212,373.493c0.284-1.476,1.205-2.199,2.35-2.678
	c8.639-3.613,14.949-9.969,20.431-17.306c0.479-0.641,0.991-1.256,1.473-1.894c1.346-1.784,3.033-2.585,5.36-2.535
	c4.393,0.095,8.793-0.084,13.188-0.175c5.377-0.111,10.432,1.37,15.419,3.135c1.73,0.613,3.404,1.391,5.084,2.139
	c1.976,0.879,2.176,1.473,0.802,3.213c-2.031,2.571-4.098,5.125-6.314,7.534c-3.957,4.302-8.014,8.565-13.312,11.239
	c-3.703,1.869-7.577,3.404-11.408,5.007c-0.483,0.202-1.239,0.054-1.76-0.177c-8.779-3.906-17.804-6.653-27.568-6.144
	C436.886,374.96,436.883,374.896,435.212,373.493z"/>
<path fill-rule="evenodd" clip-rule="evenodd" fill="#F2C31A" d="M405.445,506.754c1.641-0.793,2.809-0.07,3.902,0.755
	c5.016,3.781,10.732,5.98,16.8,7.275c3.351,0.716,6.766,1.171,10.171,1.579c2.526,0.304,4.152,1.469,5.401,3.736
	c2.115,3.842,4.607,7.473,6.862,11.24c3.01,5.026,4.323,10.615,5.216,16.328c0.185,1.184,0.361,2.37,0.476,3.563
	c0.221,2.306-0.267,2.863-2.49,2.471c-4.636-0.819-9.246-1.779-13.871-2.657c-8.638-1.64-15.501-6.568-22.111-11.948
	c-0.432-0.351-0.802-1.024-0.84-1.573c-0.399-5.707-1.96-11.149-3.617-16.577c-1.155-3.782-2.971-7.242-5.186-10.485
	C405.367,509.301,405.124,508.177,405.445,506.754z"/>
<path fill-rule="evenodd" clip-rule="evenodd" fill="#F2C31A" d="M375.392,567.611c0.076,4.39,0.144,8.78,0.232,13.17
	c0.104,5.122-1.257,9.962-2.887,14.736c-0.669,1.962-1.508,3.872-2.363,5.764c-0.78,1.727-1.386,1.927-2.912,0.751
	c-2.594-1.997-5.17-4.035-7.587-6.238c-4.194-3.824-8.459-7.659-11.128-12.771c-2.029-3.886-3.704-7.96-5.456-11.985
	c-0.208-0.479-0.066-1.247,0.171-1.763c3.303-7.181,5.316-14.708,6.061-22.563c0.149-1.576-0.076-3.188-0.133-4.784
	c-0.012-0.318-0.056-0.637-0.063-0.956c-0.031-1.181,0.269-2.261,1.355-2.855c0.725-0.396,1.797,0.388,2.562,1.72
	c0.158,0.276,0.297,0.566,0.425,0.859c3.258,7.461,8.628,13.178,14.952,18.104c1.197,0.934,2.433,1.82,3.624,2.761
	C375.032,563.761,375.199,564.123,375.392,567.611z"/>
<path fill-rule="evenodd" clip-rule="evenodd" fill="#F2C31A" d="M173.821,440.343c-0.154,1.351-1.112,2.071-2.208,2.6
	c-7.441,3.59-12.806,9.411-17.393,16.084c-0.904,1.316-1.753,2.702-2.852,3.841c-0.726,0.753-1.812,1.496-2.802,1.597
	c-4.683,0.477-9.385,0.782-14.085,1.051c-5.021,0.287-9.837-0.863-14.586-2.339c-1.448-0.449-2.873-0.979-4.293-1.511
	c-2.283-0.854-2.495-1.307-1.125-3.24c1.892-2.672,3.811-5.342,5.928-7.834c3.102-3.649,6.145-7.449,10.342-9.907
	c3.781-2.215,7.753-4.108,11.683-6.059c0.459-0.229,1.236-0.043,1.783,0.166c8.448,3.238,17.098,5.194,26.225,4.349
	C172.395,438.958,172.4,439.023,173.821,440.343z"/>
<path fill-rule="evenodd" clip-rule="evenodd" fill="#F2C31A" d="M141.157,360.435c1.834,0,3.863-0.491,5.447,0.14
	c1.544,0.615,2.567,2.453,3.935,3.618c3.402,2.896,6.722,5.923,10.362,8.491c2.576,1.817,5.591,3.035,8.472,4.386
	c1.147,0.538,2.228,1.034,2.372,2.394c0.093,0.883-1.295,1.641-3.116,1.602c-7.909-0.168-15.06,2.376-21.925,5.995
	c-1.694,0.893-3.38,1.805-5.107,2.63c-1.025,0.49-2.096,0.646-3.235,0.153c-4.537-1.966-9.138-3.791-13.635-5.841
	c-6.02-2.745-10.587-7.348-14.936-12.172c-1.033-1.145-0.923-1.852,0.549-2.63c2.962-1.566,5.95-3.104,9.026-4.426
	c4.99-2.145,10.048-4.171,15.573-4.448c2.068-0.104,4.145-0.017,6.218-0.017C141.156,360.351,141.157,360.393,141.157,360.435z"/>
<path fill-rule="evenodd" clip-rule="evenodd" fill="#F2C31A" d="M171.577,266.669c0-0.535,0.009-0.695-0.001-0.854
	c-0.192-3.055-0.669-4.126,3.727-3.042c5.412,1.335,10.759,2.988,16.038,4.788c4.683,1.597,8.365,4.865,12.172,7.93
	c2.752,2.215,4.862,4.494,4.141,8.319c1.009,5,1.832,10.05,3.105,14.982c0.648,2.508,2.104,4.808,3.207,7.196
	c0.167,0.36,0.548,0.683,0.569,1.038c0.047,0.833,0.222,1.865-0.18,2.466c-0.592,0.886-1.608,0.273-2.386-0.083
	c-0.499-0.229-0.939-0.607-1.364-0.968c-5.765-4.9-12.615-7.381-19.88-8.944c-2.026-0.436-4.052-0.877-6.072-1.34
	c-1.144-0.263-2.042-0.896-2.603-1.948c-1.951-3.662-3.91-7.32-5.838-10.995C173.104,279.294,171.925,272.896,171.577,266.669z"/>
<path fill-rule="evenodd" clip-rule="evenodd" fill="#F2C31A" d="M176.341,554.755c0.836-7.142,1.278-14.65,4.568-21.459
	c1.867-3.863,4.391-7.414,6.693-11.058c0.28-0.444,1.002-0.772,1.562-0.853c6.31-0.908,12.276-2.932,17.978-5.691
	c2.14-1.035,4.063-2.528,6.047-3.867c1.017-0.686,2.172-1.606,3.215-0.684c1.034,0.915,0.403,2.249-0.274,3.279
	c-4.739,7.214-6.09,15.356-6.553,23.747c-0.044,0.799-0.064,1.601-0.152,2.394c-0.184,1.681-0.953,2.909-2.432,3.891
	c-3.459,2.298-6.77,4.817-10.194,7.169c-5.537,3.802-11.89,5.382-18.373,6.547c-1.611,0.289-2.008-0.106-2.083-1.73
	C176.323,555.961,176.341,555.48,176.341,554.755z"/>
<path fill-rule="evenodd" clip-rule="evenodd" fill="#F2C31A" d="M437.966,261.935c-1.128,6.446-1.904,13.672-5.518,20.05
	c-1.84,3.249-4.19,6.215-6.427,9.223c-0.386,0.519-1.332,0.713-2.061,0.869c-3.115,0.67-6.273,1.16-9.365,1.922
	c-4.522,1.116-8.804,2.853-12.626,5.589c-0.935,0.669-2.087,1.383-3.01,0.425c-0.911-0.946-0.185-2.097,0.489-3.024
	c4.36-6.004,6.229-12.867,6.96-20.125c0.032-0.318,0.108-0.633,0.118-0.951c0.092-3.101,1.201-5.403,4.25-6.826
	c2.362-1.102,4.429-2.833,6.645-4.256c5.717-3.674,12.132-5.18,18.767-5.975C437.831,258.66,438.119,259.085,437.966,261.935z"/>
</svg>

