<?xml version="1.0" encoding="UTF-8" standalone="no"?>
<svg
   version="1.1"
   id="Layer_1"
   x="0px"
   y="0px"
   width="604.58813"
   height="634.97717"
   viewBox="0 0 604.58813 634.97717"
   xml:space="preserve"
   xmlns="http://www.w3.org/2000/svg"
   xmlns:svg="http://www.w3.org/2000/svg"><defs
   id="defs25" />
<path
   fill-rule="evenodd"
   clip-rule="evenodd"
   fill="#56310c"
   d="m 430.74841,317.56039 c -0.0315,67.72775 -58.2489,122.30637 -130.40903,122.26264 -72.03707,-0.0437 -130.10135,-54.80714 -130.02032,-122.628 0.0795,-67.57118 58.20688,-122.04399 130.22893,-122.04117 72.15714,0.005 130.23344,54.604 130.20042,122.40653 z"
   id="path1"
   style="stroke-width:1.45507" />
<path
   fill-rule="evenodd"
   clip-rule="evenodd"
   fill="#f2c31a"
   d="m 151.4971,226.49541 c 3.29433,2.20775 6.44308,4.64826 9.91451,6.57387 6.60667,3.66499 13.38745,7.05068 20.11719,10.51818 2.22724,1.14831 2.63997,1.83815 1.6209,4.0332 -0.99805,2.1499 -2.22424,4.2067 -3.37688,6.3552 -0.41272,-0.12696 -0.81645,-0.14389 -1.05058,-0.33998 -10.62741,-8.89729 -23.35449,-14.12676 -36.68941,-18.05556 -9.59783,-2.82845 -19.42079,-4.98118 -29.16271,-7.36809 -1.4228,-0.34986 -3.46843,-1.22308 -4.21435,0.4486 -0.86298,1.93407 1.6209,2.08925 2.77354,2.81153 8.68383,5.44248 17.39018,10.85111 26.13104,16.2146 8.88344,5.45095 18.1601,10.16269 28.65844,12.23924 3.00467,0.5939 6.1264,0.66727 9.1866,0.97902 -1.02656,3.94291 -2.04863,7.95777 -3.12173,11.95993 -0.46075,1.72105 -1.89555,2.44897 -3.54948,3.03583 -4.80417,1.70413 -9.67888,1.0679 -14.5596,0.53465 -1.18715,-0.12978 -2.37281,-0.44719 -3.55247,-0.42179 -14.15137,0.30894 -27.56432,-2.85949 -40.72214,-7.40477 -10.517861,-3.63256 -20.755051,-7.81105 -29.638487,-14.32144 -4.134799,-3.03018 -7.877884,-6.58092 -11.52341,-10.14295 -4.57004,-4.46627 -9.210623,-8.9382 -13.193842,-13.8559 -6.972882,-8.6095 -13.69361,-17.41792 -20.105186,-26.40409 -6.993883,-9.80155 -15.481102,-18.37297 -23.902293,-27.02339 -2.6729824,-2.74522 -5.4720409,-5.38183 -8.214065,-8.06779 -0.3331907,-0.32447 -0.6948867,-0.62495 -1.0055637,-0.96916 -1.51283625,-1.67027 -2.90711235,-3.44211 -2.06064545,-5.78951 0.89749785,-2.48143 3.38439075,-2.91029 5.60862385,-2.90887 5.2649273,0 10.5763823,0.0212 15.7887773,0.6334 16.531692,1.94395 33.013867,4.24057 49.539556,6.22684 4.747136,0.56992 9.57382,0.53325 14.362993,0.80128 18.817462,1.04956 36.582852,5.44107 53.209082,14.03224 12.7436,6.58515 23.70419,15.28071 34.47119,24.27111 2.86808,2.39537 5.67465,4.87397 8.32061,7.48236 4.1288,4.06987 8.12102,8.26247 12.11625,12.44943 1.25169,1.31196 1.20966,2.9512 0.56281,4.47899 -0.92902,2.19363 -1.94208,4.36893 -3.10673,6.4596 -0.87498,1.57292 -2.00662,1.63077 -4.34641,0.81679 -6.96988,-2.42358 -13.94276,-4.83588 -20.94715,-7.16636 -3.50145,-1.16524 -7.06894,-2.15555 -10.61691,-3.19665 -1.10611,-0.32447 -2.24525,-0.55159 -3.36938,-0.82244 -0.1156,0.30188 -0.23413,0.60237 -0.35269,0.90285 z"
   id="path2"
   style="stroke-width:1.45507" />
<path
   fill-rule="evenodd"
   clip-rule="evenodd"
   fill="#f2c31a"
   d="m 313.90993,443.51201 c 4.22185,-0.94798 8.2846,-1.84096 12.33686,-2.77908 1.84752,-0.42744 3.21179,0.26381 4.54453,1.38532 3.43691,2.89193 5.17637,6.69659 6.75375,10.62117 1.01607,2.52373 1.99311,5.07569 3.2343,7.50069 5.05031,9.86644 7.76382,20.33384 9.32169,31.11725 1.13313,7.83362 1.74396,15.68135 1.51734,23.60384 -0.21912,7.74052 -1.57738,15.25532 -4.43796,22.49927 -2.62947,6.65569 -5.07282,13.41437 -8.31013,19.80906 -4.79067,9.46017 -9.895,18.81171 -15.44959,27.89239 -6.07989,9.93839 -10.51785,20.49608 -14.82225,31.13981 -1.83102,4.53117 -3.49394,9.1216 -5.23191,13.68522 -0.0405,0.10582 -0.057,0.22006 -0.10506,0.32304 -0.95452,2.08361 -1.8055,4.3097 -4.67209,4.63134 -2.94914,0.33292 -4.22485,-1.71259 -5.47205,-3.66642 -3.7866,-5.94469 -6.12791,-12.47201 -8.53374,-18.96546 -5.0458,-13.62455 -9.92202,-27.30694 -15.13593,-40.87506 -2.72551,-7.09301 -6.26297,-13.90951 -9.002,-20.99828 -4.76065,-12.31966 -6.46109,-25.10061 -6.28249,-38.2159 0.19961,-14.71361 3.72357,-28.80087 7.95742,-42.80914 0.98305,-3.25307 1.91807,-6.52448 3.08122,-9.72114 1.23818,-3.40261 2.71951,-6.72763 4.09427,-10.08509 0.60183,-1.46855 1.28621,-2.9117 1.7875,-4.40986 0.69788,-2.08924 2.18222,-3.19947 4.43797,-3.37863 2.38633,-0.19044 4.77865,-0.34138 7.17099,-0.38935 1.85503,-0.0353 2.83807,0.95787 3.09171,3.05981 0.60785,5.0362 1.04909,10.09215 1.75448,15.11707 0.84647,6.03216 1.89106,12.04034 2.8741,18.05415 0.0781,0.47964 0.34069,0.93107 0.79845,2.13581 1.70794,-5.04326 2.41033,-9.43477 2.64596,-13.87708 0.3512,-6.64298 0.54931,-13.29162 0.80746,-19.93884 0.0931,-2.37421 1.05058,-3.18819 3.96821,-3.20229 1.07009,-0.006 2.14018,0.25111 3.21328,0.2638 1.05509,0.0141 2.11167,-0.12978 3.57048,-0.23135 -0.16508,1.04109 -0.29266,1.86353 -0.42773,2.68315 -0.56282,3.43929 -1.37026,6.86306 -1.64942,10.3221 -1.22469,15.25109 1.27872,30.12129 5.38049,44.82502 0.90951,3.26296 1.28922,6.65428 2.11917,9.9398 0.35121,1.38672 0.32569,3.24321 2.81107,3.71156 0.28666,-0.73639 0.70689,-1.39942 0.78944,-2.09631 1.51884,-12.65539 3.09622,-25.30515 4.44847,-37.97748 0.82096,-7.68549 0.13959,-15.33573 -1.92406,-22.8195 -0.74442,-2.69161 -2.02162,-5.2605 -3.0542,-7.88441 z"
   id="path3"
   style="stroke-width:1.45507" />
<path
   fill-rule="evenodd"
   clip-rule="evenodd"
   fill="#f2c31a"
   d="m 446.27905,405.86182 c -2.61596,-2.07797 -5.05631,-4.40421 -7.88539,-6.18452 -6.87532,-4.32944 -13.90973,-8.43881 -20.92464,-12.56793 -2.5169,-1.48124 -2.92362,-2.188 -1.56987,-4.59325 1.11062,-1.97498 2.44636,-3.83993 3.74009,-5.84171 0.51477,0.29907 0.97103,0.47118 1.29821,0.76883 10.10812,9.22599 22.40747,14.99717 35.37768,19.63978 4.69761,1.68014 9.57683,2.91592 14.36299,4.37882 3.76258,1.14831 7.50567,2.34881 11.26827,3.49713 1.59538,0.48669 3.19227,1.03827 4.83569,1.2795 0.75642,0.11151 1.6239,-0.45283 2.44185,-0.71099 -0.37821,-0.63199 -0.59282,-1.47983 -1.16015,-1.86212 -12.47193,-8.42048 -24.8208,-17.01024 -37.54338,-25.08227 -7.61073,-4.83165 -16.15047,-7.92391 -25.51419,-8.45433 -0.21161,-0.0127 -0.41122,-0.19892 -0.61684,-0.30612 1.22469,-3.86674 2.30378,-7.78425 3.7641,-11.56916 0.41873,-1.08766 1.7935,-2.27546 2.97616,-2.58441 2.50339,-0.65315 5.20639,-1.19768 7.75781,-0.99877 6.68171,0.51772 13.33341,1.41351 19.98211,2.24301 13.11429,1.63359 25.32208,6.01382 37.19218,11.24469 9.59034,4.22505 18.71541,9.2133 26.39069,16.23013 1.37476,1.25693 2.71951,2.54913 3.99971,3.8893 13.05727,13.66405 23.78373,28.8968 33.57968,44.70511 6.01835,9.71268 13.39495,18.42799 20.95315,27.04737 3.28233,3.7426 6.72074,7.36387 10.02258,11.09093 0.90951,1.0284 1.78599,2.15979 2.3278,3.38146 1.16165,2.61967 0.03,4.76111 -2.88761,5.45236 -1.48432,0.35126 -3.11423,0.55017 -4.62258,0.37665 -7.3706,-0.85207 -14.7667,-1.62512 -22.07277,-2.84961 -14.04331,-2.35023 -28.01308,-5.08699 -42.05489,-7.44992 -5.18237,-0.87181 -10.49233,-1.04392 -15.72275,-1.70412 -17.20106,-2.16683 -33.36655,-7.10006 -48.28635,-15.62493 -13.36043,-7.63471 -24.72625,-17.42357 -35.46323,-27.95445 -2.40733,-2.36292 -4.96925,-4.60311 -7.2205,-7.08877 -3.80162,-4.19966 -7.43514,-8.53615 -11.08967,-12.85007 -0.96955,-1.14691 -1.0761,-2.54773 -0.42924,-3.85263 1.15864,-2.346 2.3368,-4.69764 3.72357,-6.92654 0.86898,-1.39518 2.21073,-1.33735 4.48299,-0.43027 7.7233,3.0852 15.4616,6.14078 23.21341,9.16251 2.88011,1.12151 5.80673,2.13721 8.72735,3.15997 0.7204,0.25392 1.50384,0.35408 2.25877,0.52336 0.13207,-0.19467 0.25963,-0.38934 0.38721,-0.58402 z"
   id="path4"
   style="stroke-width:1.45507" />
<path
   fill-rule="evenodd"
   clip-rule="evenodd"
   fill="#f2c31a"
   d="m 308.2848,155.7417 c -0.48327,3.56201 -1.23519,7.11275 -1.39427,10.68887 -0.33019,7.43441 -0.36321,14.8815 -0.48177,22.32294 -0.0405,2.57877 -0.5388,3.20653 -3.30034,3.32503 -2.36232,0.10013 -4.73513,0.0212 -7.40812,0.0212 0.43374,-2.04551 0.96654,-3.97253 1.23819,-5.932 1.23819,-8.89447 1.05058,-17.8228 -0.42473,-26.63686 -1.22619,-7.33 -3.25982,-14.54151 -4.97228,-21.79815 -0.95902,-4.06988 -1.87903,-8.15244 -3.04368,-12.17012 -0.45175,-1.56024 -0.18461,-4.32944 -2.79155,-3.9683 -2.04714,0.28355 -0.95904,2.68033 -1.11062,4.1263 -0.89301,8.52628 -1.63141,17.06666 -2.52292,25.59294 -1.13012,10.83418 -1.49332,21.63028 1.7695,32.22888 0.88699,2.88206 2.24224,5.63716 3.37987,8.44586 -4.13179,1.04251 -8.34314,2.14286 -12.57699,3.15715 -1.66593,0.39923 -2.98966,-0.37525 -4.23686,-1.36979 -3.4129,-2.72547 -5.2184,-6.39048 -6.91284,-10.14576 -1.35526,-3.00479 -2.7,-6.02228 -4.24586,-8.94102 -5.18989,-9.80156 -8.01896,-20.24498 -9.83348,-30.98887 -1.30122,-7.69961 -2.10266,-15.42743 -2.01111,-23.23143 0.0961,-8.31044 1.62991,-16.36131 4.70962,-24.158254 2.50339,-6.3397 4.52502,-12.8783 7.48766,-19.01767 4.8537,-10.05829 10.12163,-19.95295 15.55466,-29.75027 4.06876,-7.33706 7.14696,-15.02114 10.0811,-22.77295 2.37282,-6.26492 4.47248,-12.620133 6.72825,-18.9259627 0.41723,-1.166652 0.85847,-2.365748 1.54586,-3.398384 1.9991,-3.00901601 4.88972,-3.25730301 7.3736,-0.653151 0.87198,0.91273 1.67942,1.948184 2.22423,3.055581 2.77204,5.6202337 5.71067,11.1868567 8.10001,16.9523867 4.74863,11.44643 9.09955,23.03676 13.77466,34.50998 1.79799,4.41408 3.88416,8.74071 6.10389,12.9841 4.99929,9.55891 8.996,19.47755 11.30128,29.88429 3.10524,14.018144 3.47143,28.125144 1.0656,42.357714 -2.02162,11.95429 -5.22891,23.61091 -8.65832,35.22944 -1.33874,4.53822 -3.39338,8.89165 -5.17337,13.31138 -0.66937,1.66038 -2.21074,2.3601 -3.9502,2.55619 -2.37733,0.26662 -4.77115,0.45142 -7.16198,0.54593 -1.81451,0.072 -2.73302,-0.79422 -3.02419,-2.67328 -0.9095,-5.90943 -1.70944,-11.83577 -2.71501,-17.73109 -0.9095,-5.34092 -2.02762,-10.64939 -3.08121,-15.96915 -0.0795,-0.3964 -0.38121,-0.75472 -0.58082,-1.13138 -0.27165,0.0183 -0.54781,0.0424 -0.82546,0.0677 z"
   id="path5"
   style="stroke-width:1.45507" />
<path
   fill-rule="evenodd"
   clip-rule="evenodd"
   fill="#f2c31a"
   d="m 144.90093,391.08331 c 2.89811,-0.96915 6.00184,-1.58986 8.65531,-2.97376 7.34058,-3.82864 14.53259,-7.91403 21.70358,-12.0234 3.11422,-1.78454 4.11378,-1.73234 6.07987,1.1469 1.09262,1.59691 2.13419,3.22204 3.30935,5.00093 -0.42774,0.27933 -0.75342,0.62212 -1.15414,0.73356 -9.1611,2.54209 -16.75832,7.74193 -24.37056,12.8402 -8.94797,5.99126 -16.35309,13.57659 -23.82576,21.07448 -2.12967,2.1372 -4.46647,4.09102 -6.67271,6.16052 -0.84646,0.79423 -1.72295,1.60821 -2.34429,2.55337 -0.37222,0.56428 -0.27616,1.40224 -0.39023,2.11605 0.75042,0.0353 1.50084,0.079 2.25125,0.0987 0.10361,0.002 0.20863,-0.10298 0.31518,-0.15518 11.10018,-5.3522 22.25138,-10.61693 33.28851,-16.08481 7.67678,-3.80184 14.84927,-8.35981 20.76405,-14.40609 2.39984,-2.45179 4.38695,-5.2605 6.53765,-7.87593 3.04069,2.71136 6.14891,5.47633 9.24814,8.24836 1.36126,1.21743 1.50233,2.70713 1.20816,4.36753 -0.77742,4.37882 -3.28832,7.92956 -6.01684,11.38719 -0.99955,1.26539 -2.19872,2.4278 -2.99716,3.79478 -7.41112,12.71747 -18.13009,22.66009 -29.95066,31.67728 -9.36822,7.14803 -19.2212,13.67111 -30.92921,16.89598 -12.30984,3.3885 -24.8148,6.14924 -37.637925,7.30038 -11.822079,1.06084 -23.749211,1.4784 -35.454219,3.22345 -12.647534,1.88469 -25.087954,4.98823 -37.622931,7.5416 -1.514338,0.30894 -3.055691,0.72087 -4.582048,0.70676 -3.665037,-0.0338 -5.6566414,-2.50399 -4.211346,-5.6569 1.602904,-3.49713 3.481939,-6.97875 5.857764,-10.04702 6.567647,-8.47831 13.466996,-16.72809 20.217743,-25.08226 7.40362,-9.15969 14.768216,-18.31796 21.358377,-28.05743 9.979054,-14.74606 22.868223,-26.87386 38.870117,-36.05753 12.817138,-7.35539 26.659338,-12.29566 40.882748,-16.48262 3.77759,-1.11164 7.52218,-2.34882 11.35681,-3.2418 5.33997,-1.24424 10.72797,-2.33471 16.14598,-3.22204 1.20217,-0.1975 3.00767,0.37243 3.84513,1.20474 1.9601,1.94536 3.60352,4.20107 5.17489,6.45396 0.98455,1.4107 0.007,2.52798 -1.18416,3.47455 -6.32301,5.02069 -12.65354,10.03009 -18.93303,15.09873 -2.45837,1.98204 -4.81618,4.07834 -7.16198,6.17887 -0.65737,0.58826 -1.10762,1.37967 -1.65392,2.07796 -0.0945,0.0268 -0.1906,0.0536 -0.28666,0.0804 0.0945,0.0705 0.1906,0.13966 0.28516,0.20877 0.0121,-0.0959 0.018,-0.18762 0.024,-0.27931 z"
   id="path6"
   style="stroke-width:1.45507" />
<path
   fill-rule="evenodd"
   clip-rule="evenodd"
   fill="#f2c31a"
   d="m 450.78305,235.16981 c -2.94163,1.12997 -6.03336,2.00884 -8.79788,3.43928 -7.35261,3.80608 -14.59863,7.79977 -21.82065,11.82451 -2.8936,1.61242 -3.75958,1.62935 -5.5861,-0.92966 -1.2487,-1.74927 -2.32029,-3.60857 -3.49695,-5.45941 0.49228,-0.30754 0.75042,-0.55159 1.06109,-0.65175 15.31903,-4.99246 27.79696,-14.04775 39.31887,-24.41359 5.63263,-5.06724 11.06415,-10.33339 16.5587,-15.53463 0.84048,-0.79424 1.6134,-1.67874 2.24526,-2.62532 0.25814,-0.38653 0.27465,-1.35146 0.015,-1.51651 -0.49377,-0.31176 -1.26221,-0.26944 -1.91957,-0.3047 -0.20261,-0.0118 -0.41123,0.21442 -0.62584,0.31458 -11.27578,5.27602 -22.60858,10.44765 -33.80931,15.86192 -7.82235,3.78209 -15.11941,8.36687 -21.11375,14.51329 -2.23924,2.29662 -4.11078,4.91207 -6.08738,7.30461 -2.99416,-2.73394 -6.06788,-5.55392 -9.15959,-8.35417 -1.49484,-1.35286 -1.4393,-2.97798 -1.08361,-4.70891 0.86898,-4.23352 3.34687,-7.67281 6.07238,-10.99361 0.95303,-1.15958 2.09517,-2.21479 2.85008,-3.47737 7.73831,-12.94318 18.80997,-23.02123 31.09579,-32.04971 8.63581,-6.34675 17.70235,-12.04598 28.17968,-15.4105 3.16676,-1.01712 6.40857,-1.8988 9.68189,-2.54632 7.7398,-1.53061 15.48261,-3.10919 23.29596,-4.23916 6.27198,-0.90707 12.64303,-1.22308 18.97655,-1.7281 7.88989,-0.62777 15.87733,-0.66021 23.65765,-1.88329 12.7586,-2.00742 25.38062,-4.78369 38.07018,-7.19317 1.62691,-0.30894 3.32584,-0.59531 4.96326,-0.49233 2.91763,0.18199 4.48149,2.33612 3.69505,4.99811 -0.40972,1.39236 -1.03707,2.79884 -1.89255,3.9951 -3.74608,5.23371 -7.40211,10.54641 -11.47989,15.54735 -7.7383,9.48978 -15.80528,18.74256 -23.60962,28.1858 -3.01368,3.64525 -5.86227,7.43722 -8.47221,11.3491 -5.385,8.0692 -11.69751,15.44011 -18.61636,22.35114 -6.2855,6.27903 -13.63808,11.34908 -21.33887,16.00017 -13.56905,8.19617 -28.52337,13.30009 -43.8754,17.53643 -3.10522,0.8577 -6.17593,1.85225 -9.31568,2.57734 -4.18283,0.96775 -8.41668,1.74082 -12.63253,2.58018 -1.28471,0.25674 -2.62045,0.34703 -3.86765,0.70676 -2.65948,0.76883 -4.72913,0.0437 -6.32151,-1.99755 -1.27572,-1.63501 -2.53791,-3.28693 -3.68305,-5.00376 -1.05209,-1.57999 -0.68888,-2.70431 1.05508,-4.06705 6.4596,-5.04325 12.9312,-10.07241 19.36227,-15.14529 2.39084,-1.88469 4.70062,-3.86109 7.01191,-5.83184 0.66937,-0.57274 1.21867,-1.27244 1.82201,-1.91431 -0.12758,-0.20456 -0.25514,-0.40911 -0.38272,-0.61366 z"
   id="path7"
   style="stroke-width:1.45507" />
<path
   fill-rule="evenodd"
   clip-rule="evenodd"
   fill="#f2c31a"
   d="m 459.94264,306.31851 c -4.59706,-0.29342 -9.04252,-0.0465 -13.40995,0.98749 -1.50834,0.35692 -3.03619,0.63765 -4.55953,0.94235 -3.20879,0.64046 -5.63714,-0.55158 -7.50568,-2.91733 -0.85548,-1.08482 -1.70795,-2.19646 -2.36232,-3.39132 -1.19616,-2.18377 -0.71139,-4.85986 1.36877,-6.33969 2.47788,-1.76197 5.04581,-3.48726 7.79684,-4.82178 13.42195,-6.51743 27.44275,-11.51555 42.6342,-12.55947 10.4173,-0.71522 20.86611,-0.43167 31.11081,2.06386 4.87171,1.18639 9.81695,2.1104 14.70517,3.24461 2.44187,0.56569 4.89273,1.18782 7.23253,2.04128 13.3034,4.84294 26.9565,8.91422 39.57401,15.29906 7.52368,3.80889 15.4556,6.69095 23.34848,9.68587 1.29973,0.49374 2.59194,1.24565 3.5795,2.16684 1.69443,1.57857 1.48131,3.44352 -0.59584,4.4818 -6.01834,3.00196 -11.66599,6.66697 -18.41674,8.35135 -4.97226,1.24141 -9.75092,3.14586 -14.64064,4.68776 -16.02741,5.05312 -32.01281,10.24733 -48.39892,14.19024 -7.42012,1.78736 -14.99033,3.0316 -22.51553,4.41408 -1.74696,0.32164 -3.59299,0.3301 -5.38348,0.25957 -13.67411,-0.54595 -27.3137,-1.38108 -40.57657,-4.92759 -1.49634,-0.39921 -3.03019,-0.766 -4.43197,-1.37966 -4.56554,-1.99754 -9.10706,-4.04871 -13.60207,-6.18733 -2.52891,-1.20473 -2.68199,-3.31515 -0.28215,-4.6539 2.56642,-1.43468 5.20039,-2.91875 8.01446,-3.77645 9.46577,-2.88206 19.02458,-5.49186 28.54738,-8.21027 0.77592,-0.22149 1.53835,-0.48529 2.30528,-1.34863 -1.7845,-0.0198 -3.57349,-0.0875 -5.35798,-0.0437 -1.91657,0.0437 -3.83313,0.18057 -5.7467,0.29906 -5.50506,0.33998 -11.00862,0.69689 -16.51368,1.02981 -0.7174,0.0437 -1.44081,0.0141 -2.15821,-0.0226 -1.35825,-0.0663 -2.77504,-0.24264 -3.28383,-1.62089 -0.57781,-1.56448 0.51479,-2.63097 1.79051,-3.32926 4.03574,-2.20774 8.09999,-4.37459 12.22279,-6.43703 1.74848,-0.87887 3.66954,-1.46148 5.51106,-2.17812 z"
   id="path8"
   style="stroke-width:1.45507" />
<path
   fill-rule="evenodd"
   clip-rule="evenodd"
   fill="#f2c31a"
   d="m 208.45827,460.40516 c 2.12519,-4.50577 4.24287,-9.0172 6.37706,-13.51875 1.41529,-2.98645 2.82456,-5.97572 4.29688,-8.93961 0.40223,-0.80692 0.91401,-1.61525 1.55937,-2.25995 1.2487,-1.24423 3.06321,-1.02416 3.84365,0.52478 0.50126,0.99455 0.82095,2.15274 0.86898,3.25167 0.18159,4.15593 0.22212,8.3175 0.30466,12.47624 0.024,1.18217 0.002,2.36434 0.002,4.34073 2.1567,-3.586 3.20579,-6.76995 4.2954,-9.93134 0.25664,-0.74626 0.33618,-1.54612 0.53428,-2.31355 1.81152,-6.95334 2.96717,-7.70101 10.9411,-8.12563 2.69549,-0.14531 5.17337,1.72246 5.67615,4.17426 0.58833,2.86937 1.22919,5.79516 1.21868,8.69556 -0.0361,10.39123 -0.67688,20.74154 -3.84063,30.80689 -1.67344,5.31976 -3.9562,10.37148 -6.76877,15.26097 -3.84814,6.69095 -8.62829,12.66668 -13.93975,18.40259 -13.98479,15.10014 -30.45644,27.40428 -47.8301,38.78582 -4.90923,3.21499 -9.46427,6.90679 -14.21892,10.33338 -1.22917,0.88593 -2.51089,1.79583 -3.92318,2.346 -2.65197,1.03123 -4.65408,-0.0789 -4.75464,-2.75793 -0.23113,-6.18168 -0.78644,-12.32247 0.29417,-18.55636 1.85203,-10.67195 3.03919,-21.44689 4.59705,-32.16821 0.58382,-4.01909 1.27871,-8.03394 2.17471,-12.00083 2.08916,-9.25703 4.19633,-18.51263 6.56916,-27.70758 1.10011,-4.26173 2.86058,-8.33866 5.56509,-12.03752 2.30679,-3.15432 4.33441,-6.49769 6.34253,-9.83399 4.06575,-6.75444 9.94453,-12.13767 15.25298,-17.94836 1.0791,-1.17934 2.48989,-2.12168 3.85114,-3.03723 3.22079,-2.16542 6.47761,-4.28289 9.76744,-6.3538 2.6985,-1.69848 4.78766,-0.85065 4.91823,2.15414 0.14108,3.25589 0.24013,6.57528 -0.27466,9.77757 -1.28921,8.02266 -2.93863,15.99311 -4.43045,23.98756 -0.12158,0.65033 -0.13358,1.319 -0.19812,1.97781 0.30917,0.0663 0.61835,0.13119 0.92751,0.19467 z"
   id="path9"
   style="stroke-width:1.45507" />
<path
   fill-rule="evenodd"
   clip-rule="evenodd"
   fill="#f2c31a"
   d="m 394.29464,443.08457 c -2.18973,-2.65211 -4.37494,-5.30705 -6.57817,-7.95071 -0.21762,-0.25956 -0.56731,-0.41898 -0.81795,-0.65879 -5.5801,-5.34656 -5.33547,-6.90962 -1.44831,-13.30715 1.25171,-2.05962 4.13931,-2.97799 6.58267,-2.15132 2.58443,0.87322 5.17187,1.86071 7.53569,3.15574 12.11023,6.62888 23.28395,14.38069 31.6526,25.13869 5.24842,6.74598 9.75843,13.94196 12.5665,21.9364 2.03062,5.77823 4.1363,11.55646 5.65514,17.46167 1.57437,6.1182 2.54091,12.37748 3.66503,18.59445 1.9556,10.79467 2.8651,21.67824 3.15776,32.6281 0.0945,3.58035 1.05359,7.13533 1.52635,10.71286 0.28066,2.12029 0.60634,4.26879 0.51629,6.38907 -0.14709,3.39133 -2.25576,4.20388 -5.59661,2.82986 -9.5078,-3.90905 -17.03748,-10.42931 -24.94688,-16.43325 -13.15332,-9.98636 -26.16555,-20.14199 -38.4889,-31.03402 -4.53553,-4.00921 -8.74837,-8.35558 -12.9432,-12.68925 -4.91674,-5.08276 -7.30006,-11.60584 -10.84053,-17.47294 -4.12129,-6.8292 -6.32603,-14.36377 -8.58928,-21.8292 -1.03557,-3.41953 -1.09411,-7.11275 -1.47682,-10.6917 -0.20411,-1.90303 -0.13208,-3.83146 -0.22062,-5.74579 -0.0645,-1.36415 -0.24614,-2.72687 1.26069,-3.61562 1.57438,-0.92824 2.80657,0.0198 3.95771,0.72651 3.29884,2.02859 6.70423,3.96266 9.72691,6.31853 5.53508,4.31816 10.82552,8.91563 16.22702,13.38756 0.70689,0.58543 1.46482,1.11727 2.77054,1.42198 -0.27615,-0.71805 -0.40822,-1.52638 -0.84947,-2.13862 -2.55442,-3.54509 -5.2094,-7.02529 -7.77882,-10.56192 -1.9616,-2.69867 -3.88716,-5.42133 -5.74069,-8.18489 -0.69939,-1.04391 -1.35377,-2.28956 -0.28216,-3.44351 1.13913,-1.22732 2.65497,-0.99738 3.97271,-0.34986 4.03124,1.97498 8.01596,4.03461 11.99616,6.09846 1.14514,0.59391 2.21974,1.31054 3.32586,1.96793 0.27165,0.0775 0.5403,0.15799 0.81044,0.23981 -0.10058,-0.24968 -0.20411,-0.49797 -0.30766,-0.74908 z m -4.82669,18.19099 c 0.0811,-0.0677 0.16059,-0.13543 0.24164,-0.20314 -0.072,-0.0748 -0.14559,-0.14954 -0.21912,-0.2243 -0.075,0.0734 -0.20862,0.14672 -0.20862,0.22007 0,0.0762 0.13057,0.15094 0.1861,0.20737 z"
   id="path10"
   style="stroke-width:1.45507" />
<path
   fill-rule="evenodd"
   clip-rule="evenodd"
   fill="#f2c31a"
   d="m 124.24193,313.66122 c 4.98729,-0.48669 9.97606,-0.96916 14.96333,-1.4615 3.57499,-0.35408 7.14847,-0.73074 10.72497,-1.07917 0.59432,-0.0579 1.20067,-0.0438 1.7995,-0.0324 1.33574,0.0255 2.75403,-0.007 3.2343,1.52779 0.43974,1.40647 -0.38571,2.46309 -1.49334,3.19101 -3.53296,2.32201 -7.09895,4.60311 -10.72496,6.79252 -1.48133,0.89579 -3.14875,1.51933 -4.94825,2.36997 2.80205,0.64611 7.51168,0.0479 11.56843,-1.17934 1.92407,-0.58261 3.93369,-0.92965 5.9208,-1.29785 0.67838,-0.12555 1.4453,-0.11422 2.11317,0.0465 3.60351,0.86899 7.59722,6.80805 6.75376,10.11614 -0.1801,0.70958 -0.75042,1.42058 -1.33874,1.92843 -1.58488,1.37402 -3.15027,2.81717 -4.94226,3.91469 -11.3388,6.95194 -23.37399,12.51857 -36.76594,14.90406 -5.14187,0.91555 -10.47282,0.87323 -15.70624,1.36698 -12.096727,1.13843 -23.695183,-1.87201 -35.071503,-4.69482 -12.119249,-3.00762 -23.830261,-7.56842 -35.557783,-11.84143 -8.704839,-3.16984 -16.76132,-7.81246 -25.8158604,-10.26144 -1.826515,-0.49515 -3.6185093,-1.26963 -5.2499178,-2.19364 -3.06019345,-1.72951 -2.90411055,-4.02049 -0.1395728,-6.0646 8.059483,-5.9588 17.603285,-9.11454 26.863438,-12.79083 15.460101,-6.14078 30.992233,-12.13061 46.917593,-17.14142 6.016848,-1.89317 12.173269,-3.41954 18.319196,-4.92335 6.84681,-1.67451 13.8632,-0.58404 20.80006,-0.82385 9.21363,-0.32023 18.10458,1.72105 27.01053,3.49572 2.54091,0.50644 4.94224,1.69707 7.35559,2.68738 2.74653,1.12715 5.45553,2.34036 8.14052,3.59306 2.78255,1.29784 3.07521,3.27282 0.57032,4.85845 -2.57393,1.63077 -5.2229,3.29116 -8.08199,4.36753 -8.23658,3.09648 -16.59624,5.90802 -24.90786,8.82817 -0.86148,0.3033 -1.72896,0.58967 -2.59493,0.88309 0.0945,0.30472 0.1891,0.60943 0.28364,0.91414 z"
   id="path11"
   style="stroke-width:1.45507" />
<path
   fill-rule="evenodd"
   clip-rule="evenodd"
   fill="#f2c31a"
   d="m 208.8455,189.42218 c 2.06815,2.87361 4.12879,5.75144 6.21345,8.61375 0.26715,0.36678 0.67838,0.63763 0.99355,0.9762 4.16932,4.48039 4.16932,8.98193 -0.37521,13.14209 -1.64341,1.50381 -3.83463,2.73253 -6.44608,1.45584 -1.59389,-0.7787 -3.33635,-1.32606 -4.83419,-2.23737 -12.91318,-7.85901 -24.47712,-17.10898 -32.63715,-29.55419 -6.14892,-9.37833 -9.95654,-19.61015 -12.48095,-30.41894 -4.51,-19.31391 -5.37448,-38.82532 -5.05331,-58.473564 0.0675,-4.15593 -0.35719,-8.3175 -0.52079,-12.47766 -0.0885,-2.25147 -0.30016,-4.52129 -0.10809,-6.75724 0.30768,-3.57755 2.697,-4.59325 5.95681,-2.72689 6.25849,3.58459 12.09673,7.58392 17.32114,12.53125 9.5438,9.03414 19.64292,17.547724 29.29779,26.480274 8.29061,7.6714 16.12947,15.75894 23.34999,24.3473 2.75253,3.27423 5.13436,6.75866 6.69672,10.74248 1.53085,3.90623 3.35587,7.71512 5.17938,11.51415 3.33786,6.95898 4.88222,14.42018 6.19544,21.82495 0.91401,5.1547 0.29417,10.57038 0.14859,15.86474 -0.0661,2.41371 -2.02762,3.36311 -4.28639,2.08925 -2.55592,-1.44173 -5.16436,-2.95401 -7.29555,-4.87962 -5.87877,-5.31269 -11.51891,-10.85816 -17.2611,-16.30487 -0.90951,-0.86336 -1.86554,-1.68579 -3.35586,-2.29804 0.14257,0.64892 0.12007,1.3839 0.45175,1.93125 2.25575,3.71861 4.60756,7.38361 6.88433,11.09094 1.73646,2.82986 3.43541,5.68088 5.09233,8.55166 0.64386,1.11587 1.0866,2.39537 0.0556,3.48162 -1.18865,1.25269 -2.694,0.82948 -3.9622,0.1199 -3.49694,-1.95664 -6.95487,-3.97535 -10.36776,-6.05896 -1.49934,-0.91555 -2.85009,-2.04411 -4.27139,-3.07391 -0.33618,-0.19327 -0.67087,-0.38653 -1.00555,-0.58262 0.14258,0.35972 0.28365,0.72369 0.42474,1.08623 z m 6.52112,-17.401 c -0.0661,-0.0748 -0.13207,-0.15094 -0.19811,-0.22712 -0.0765,0.0663 -0.15308,0.13403 -0.22813,0.20032 0.10059,0.0777 0.20261,0.15518 0.30467,0.23418 0.0405,-0.0691 0.0811,-0.13825 0.12157,-0.20738 z"
   id="path12"
   style="stroke-width:1.45507" />
<path
   fill-rule="evenodd"
   clip-rule="evenodd"
   fill="#f2c31a"
   d="m 387.0411,178.71779 c -1.37627,2.33188 -2.82607,4.62991 -4.11529,7.00412 -2.28877,4.21659 -4.44997,8.49525 -6.73275,12.71465 -0.70388,1.29926 -1.50833,2.58723 -2.48688,3.71155 -1.68843,1.93832 -3.69355,1.50946 -4.501,-0.90707 -0.24764,-0.73779 -0.33619,-1.55883 -0.30917,-2.33612 0.16208,-4.83307 0.37671,-9.66471 0.57782,-14.49636 0.03,-0.66868 0.0885,-1.33453 -0.10809,-2.08785 -2.29177,3.27706 -4.02072,6.78689 -5.18687,10.54782 -0.36772,1.18499 -0.66037,2.40807 -1.18266,3.5338 -2.36082,5.09404 -9.79146,6.74738 -14.3645,3.16702 -0.66337,-0.51913 -1.25919,-1.44596 -1.34024,-2.23313 -0.3632,-3.57754 -0.86598,-7.18611 -0.70539,-10.75942 0.38421,-8.45857 1.56236,-16.82825 4.12429,-24.99763 2.18522,-6.97168 5.43753,-13.41152 9.45676,-19.63554 4.47399,-6.9336 10.21919,-12.73863 16.21052,-18.45338 14.93631,-14.24526 32.16289,-25.594354 50.344,-35.796544 3.18026,-1.78454 6.09788,-3.98381 9.13107,-5.99972 1.9586,-1.30066 3.83014,-2.73393 5.87428,-3.89776 4.01472,-2.28251 6.1204,-0.95646 6.4971,3.37157 0.79845,9.1611 -1.60739,17.92438 -3.36036,26.761014 -2.12969,10.73684 -4.39895,21.45394 -6.88733,32.12306 -2.38483,10.23324 -5.30245,20.3522 -8.94648,30.26378 -1.44981,3.94291 -3.32735,7.69961 -6.06938,11.074 -2.39832,2.94978 -4.57154,6.07307 -6.68622,9.2147 -4.41696,6.55977 -10.62441,11.60443 -16.22852,17.15977 -0.65436,0.64893 -1.41078,1.2386 -2.21524,1.71823 -4.15281,2.47438 -8.29361,4.9685 -12.52145,7.32577 -2.49889,1.39377 -4.17383,0.46976 -4.3209,-2.27264 -0.23113,-4.29981 0.15308,-8.54884 1.24118,-12.75132 1.75748,-6.78689 3.4144,-13.59776 5.10734,-20.39874 0.1861,-0.75049 0.31668,-1.51368 0.47126,-2.27123 -0.25514,-0.13683 -0.51028,-0.26662 -0.76693,-0.3964 z"
   id="path13"
   style="stroke-width:1.45507" />
<path
   fill-rule="evenodd"
   clip-rule="evenodd"
   fill="#f2c31a"
   d="m 209.42181,35.249486 c 1.10461,0.58261 1.89856,0.8704 2.5229,1.35144 11.05665,8.50512 22.24538,16.98061 29.24527,28.99838 3.31985,5.70065 5.66116,11.90913 8.29061,17.94835 0.31818,0.73215 -0.16208,1.91291 -0.57031,2.75933 -4.99779,10.31646 -8.6298,21.002524 -9.79595,32.329044 -0.28667,2.79178 -0.14708,5.63011 -0.0495,8.44305 0.072,2.13438 -0.084,4.58619 -2.3623,5.11943 -2.46138,0.57556 -3.61402,-1.81558 -4.41696,-3.69321 -4.17233,-9.76064 -11.17973,-17.5322 -19.37128,-24.45311 -2.66998,-2.2557 -5.60262,-4.234924 -8.37766,-6.383414 -1.38527,-1.07355 -2.8831,-2.09913 -3.9622,-3.4139 -0.89299,-1.08765 -1.70495,-2.55055 -1.76199,-3.87802 -0.30466,-6.97168 -0.48327,-13.95465 -0.46826,-20.93198 0.024,-11.41539 3.99223,-21.89126 9.09657,-32.05113 0.40372,-0.80974 1.28171,-1.40647 1.9811,-2.14426 z"
   id="path14"
   style="stroke-width:1.45507" />
<path
   fill-rule="evenodd"
   clip-rule="evenodd"
   fill="#f2c31a"
   d="m 354.96076,136.3107 c -1.86103,-1.12716 -2.02612,-2.89335 -1.85353,-4.74137 0.20862,-2.24442 0.59283,-4.47756 0.7234,-6.7248 0.59433,-10.20361 -1.77099,-19.93886 -5.40901,-29.461084 -1.01456,-2.65354 -2.07565,-5.29014 -3.03469,-7.9606 -0.896,-2.4913 -0.49528,-4.71315 1.0656,-7.03799 3.64853,-5.42837 6.92785,-11.07259 10.46231,-16.57008 6.23747,-9.70281 15.35504,-16.63217 25.20803,-22.81528 2.44636,-1.53483 3.67704,-1.24282 4.64657,1.35992 4.75766,12.78519 9.66838,25.60987 8.82942,39.43897 -0.38871,6.38483 -1.78449,12.72029 -2.86058,19.057164 -0.12158,0.70817 -1.02658,1.45021 -1.76049,1.89457 -9.37421,5.65691 -17.50274,12.65681 -24.65422,20.62022 -2.60694,2.90463 -4.55503,6.3411 -6.71322,9.58854 -1.52485,2.2952 -1.56238,2.41371 -4.64959,3.35182 z"
   id="path15"
   style="stroke-width:1.45507" />
<path
   fill-rule="evenodd"
   clip-rule="evenodd"
   fill="#f2c31a"
   d="m 241.32506,510.34116 c -0.21011,1.17511 -0.31818,1.84378 -0.44725,2.50822 -2.20173,11.30254 -0.18761,22.20726 3.49844,32.95821 1.0656,3.10778 2.27527,6.18875 3.0497,9.36141 0.31368,1.28798 0.0661,3.02878 -0.65286,4.15311 -3.82712,5.98419 -7.81785,11.87951 -11.8776,17.72827 -4.80118,6.91668 -11.35832,12.17013 -18.52181,16.8071 -1.28471,0.8309 -2.58894,1.635 -3.88716,2.44615 -4.04326,2.52093 -4.76515,2.42077 -6.14291,-2.08502 -2.1507,-7.03092 -4.08228,-14.12957 -5.84876,-21.25362 -1.45131,-5.85582 -1.78149,-11.84424 -0.80594,-17.80868 0.80144,-4.89796 1.813,-9.7691 2.93863,-14.60782 0.21011,-0.90284 1.2667,-1.81556 2.1792,-2.3601 9.49129,-5.66255 17.98001,-12.40288 25.07595,-20.61034 1.88055,-2.1753 3.34237,-4.67083 4.99629,-7.01964 0.39471,-0.56006 0.65436,-1.34299 1.20816,-1.64065 1.07761,-0.57839 2.53191,-1.44879 3.43691,-1.14972 0.91551,0.3033 1.35677,1.87623 1.80101,2.57312 z"
   id="path16"
   style="stroke-width:1.45507" />
<path
   fill-rule="evenodd"
   clip-rule="evenodd"
   fill="#f2c31a"
   d="m 495.2693,358.87701 c 1.42879,-1.793 3.25531,-2.11464 5.24391,-1.9637 12.19878,0.93106 23.51208,-2.15132 34.49819,-6.7093 3.17876,-1.319 6.27349,-2.85525 9.54081,-3.93444 1.44379,-0.47681 3.47293,-0.56005 4.80717,0.031 8.11802,3.61562 16.29906,7.16778 24.0989,11.33922 8.24558,4.41125 14.38701,11.16288 20.18923,18.10776 1.39427,1.67027 1.12862,2.6366 -1.23068,3.65372 -5.01129,2.15696 -10.04209,4.3252 -15.22747,6.06742 -7.67227,2.57453 -15.41508,5.16598 -23.71619,5.1547 -4.78316,-0.006 -9.56782,-0.56569 -14.34799,-0.52619 -4.3179,0.0338 -6.94285,-1.79864 -9.77643,-4.81331 -5.05781,-5.38184 -10.90057,-10.13448 -16.59923,-14.95626 -3.9547,-3.34759 -8.77539,-5.49327 -13.60807,-7.50211 -1.87605,-0.78152 -3.25081,-1.82545 -3.87215,-3.94854 z"
   id="path17"
   style="stroke-width:1.45507" />
<path
   fill-rule="evenodd"
   clip-rule="evenodd"
   fill="#f2c31a"
   d="m 490.10041,269.26364 c 0.42625,-2.0822 1.80852,-3.10214 3.52697,-3.77786 12.96572,-5.09687 22.43598,-14.06328 30.66356,-24.4136 0.7189,-0.90426 1.48732,-1.77184 2.21072,-2.67186 2.02012,-2.51669 4.55203,-3.64667 8.04448,-3.57614 6.59317,0.13403 13.19684,-0.1185 19.793,-0.24687 8.06999,-0.15658 15.65671,1.93267 23.14138,4.42255 2.59644,0.86476 5.10883,1.96228 7.63024,3.01749 2.96566,1.24001 3.26581,2.07796 1.20367,4.53258 -3.04819,3.62692 -6.15042,7.22984 -9.47627,10.62823 -5.93881,6.06883 -12.02769,12.08265 -19.97911,15.85486 -5.5576,2.63661 -11.37182,4.80203 -17.12152,7.06338 -0.7249,0.28497 -1.85953,0.0762 -2.64147,-0.24968 -13.17584,-5.5102 -26.72087,-9.38541 -41.37501,-8.66736 -3.10824,0.15378 -3.11273,0.0635 -5.62064,-1.91572 z"
   id="path18"
   style="stroke-width:1.45507" />
<path
   fill-rule="evenodd"
   clip-rule="evenodd"
   fill="#f2c31a"
   d="m 445.42508,457.25507 c 2.46286,-1.11869 4.21583,-0.0987 5.85625,1.06507 7.52818,5.33387 16.10696,8.43599 25.21403,10.26285 5.02929,1.01006 10.15464,1.65193 15.26498,2.22751 3.79111,0.42884 6.23147,2.07231 8.10601,5.27037 3.17426,5.41991 6.91435,10.54217 10.29873,15.85629 4.51752,7.09017 6.48811,14.97459 7.82835,23.03392 0.27766,1.67027 0.54181,3.34336 0.7144,5.02633 0.33169,3.25307 -0.40072,4.03883 -3.73708,3.48584 -6.95786,-1.15537 -13.87671,-2.50964 -20.81807,-3.74824 -12.96422,-2.31355 -23.26444,-9.26549 -33.18496,-16.85506 -0.64836,-0.49515 -1.20368,-1.44455 -1.26071,-2.21903 -0.59883,-8.05087 -2.94163,-15.7279 -5.42851,-23.38519 -1.73346,-5.33526 -4.45899,-10.21629 -7.78333,-14.79119 -1.18716,-1.63642 -1.55186,-3.22204 -1.07009,-5.22947 z"
   id="path19"
   style="stroke-width:1.45507" />
<path
   fill-rule="evenodd"
   clip-rule="evenodd"
   fill="#f2c31a"
   d="m 400.32049,543.1061 c 0.11402,6.19298 0.21612,12.38596 0.34819,18.57893 0.15608,7.22561 -1.88655,14.0534 -4.33291,20.78809 -1.00406,2.7678 -2.26326,5.46224 -3.54648,8.13128 -1.17065,2.43628 -2.08015,2.71842 -4.37043,1.05945 -3.89316,-2.81718 -7.75931,-5.69219 -11.38682,-8.79996 -6.29451,-5.39452 -12.69557,-10.80456 -16.7013,-18.01607 -3.04518,-5.48198 -5.55908,-11.22917 -8.18855,-16.90725 -0.31218,-0.67572 -0.099,-1.75914 0.25665,-2.48706 4.95725,-10.13025 7.97843,-20.7486 9.09655,-31.82965 0.22362,-2.22327 -0.11402,-4.49732 -0.19961,-6.7488 -0.018,-0.4486 -0.084,-0.89862 -0.0945,-1.34863 -0.0465,-1.66604 0.40372,-3.18959 2.03363,-4.02755 1.0881,-0.55863 2.69699,0.54735 3.84513,2.42641 0.23713,0.38935 0.44575,0.79846 0.63785,1.21179 4.88973,10.52524 12.94921,18.59022 22.44049,25.53933 1.7965,1.3176 3.65153,2.56748 5.43902,3.89495 4.18283,3.10354 4.43347,3.61421 4.72313,8.53474 z"
   id="path20"
   style="stroke-width:1.45507" />
<path
   fill-rule="evenodd"
   clip-rule="evenodd"
   fill="#f2c31a"
   d="m 97.795729,363.569 c -0.23113,1.90585 -1.668923,2.92156 -3.313839,3.66782 -11.167718,5.06442 -19.219696,13.2761 -26.104024,22.68971 -1.356753,1.85649 -2.630956,3.81172 -4.280376,5.4185 -1.089603,1.06227 -2.71951,2.11042 -4.205342,2.2529 -7.028404,0.67291 -14.085336,1.10316 -21.139256,1.48265 -7.535688,0.40486 -14.763713,-1.21743 -21.891176,-3.29963 -2.173202,-0.63341 -4.311895,-1.38108 -6.443084,-2.13157 -3.4264044,-1.20475 -3.7445864,-1.84379 -1.6884434,-4.57068 2.8395834,-3.76939 5.7196914,-7.53596 8.8969564,-11.05143 4.655592,-5.14764 9.222631,-10.50831 15.521626,-13.97581 5.674664,-3.12471 11.635979,-5.79517 17.534255,-8.54744 0.688883,-0.32305 1.855032,-0.0606 2.675984,0.23417 12.679053,4.56786 25.661278,7.32719 39.359391,6.13515 2.937143,-0.25816 2.944647,-0.16647 5.077328,1.69566 z"
   id="path21"
   style="stroke-width:1.45507" />
<path
   fill-rule="evenodd"
   clip-rule="evenodd"
   fill="#f2c31a"
   d="m 48.77246,250.8427 c 2.75253,0 5.797726,-0.69266 8.175053,0.1975 2.317289,0.86758 3.852639,3.46044 5.90578,5.10391 5.105842,4.08539 10.088609,8.35559 15.551657,11.97826 3.866148,2.56325 8.39116,4.28148 12.715063,6.18734 1.721463,0.75896 3.343866,1.45866 3.559985,3.37722 0.139573,1.24565 -1.943586,2.31495 -4.676605,2.25994 -11.870096,-0.237 -22.602573,3.35183 -32.905801,8.45715 -2.542415,1.25976 -5.072822,2.54632 -7.664755,3.71014 -1.538364,0.69126 -3.145757,0.91133 -4.855201,0.21585 -6.809294,-2.77344 -13.714635,-5.34797 -20.463881,-8.23991 -9.035028,-3.87237 -15.8893384,-10.36583 -22.4164727,-17.17106 -1.55035905,-1.61525 -1.38527065,-2.61261 0.8239532,-3.71014 4.4454761,-2.20916 8.9299765,-4.37881 13.5465455,-6.24376 7.489159,-3.02595 15.080381,-5.88404 23.372494,-6.2748 3.10372,-0.14671 6.22096,-0.024 9.332185,-0.024 -0.0012,0.0579 0,0.11706 0,0.17634 z"
   id="path22"
   style="stroke-width:1.45507" />
<path
   fill-rule="evenodd"
   clip-rule="evenodd"
   fill="#f2c31a"
   d="m 94.427857,118.5669 c 0,-0.75472 0.01356,-0.98043 -0.0012,-1.20474 -0.288163,-4.30969 -1.004062,-5.82055 5.593613,-4.29135 8.12251,1.88329 16.14749,4.21517 24.07038,6.75443 7.02842,2.2529 12.55449,6.86307 18.26817,11.18686 4.1303,3.12471 7.29705,6.3397 6.21496,11.73562 1.51433,7.05351 2.74953,14.17756 4.66008,21.13513 0.97254,3.53804 3.15776,6.78265 4.81319,10.1514 0.25063,0.50786 0.82245,0.96351 0.85397,1.46431 0.0706,1.17512 0.33318,2.63097 -0.27015,3.4788 -0.8885,1.24987 -2.41335,0.38512 -3.58099,-0.11707 -0.74892,-0.32305 -1.40929,-0.85629 -2.04715,-1.36556 -8.65231,-6.91243 -18.93302,-10.41239 -29.83659,-12.61731 -3.04069,-0.61506 -6.08138,-1.23719 -9.11306,-1.89034 -1.71696,-0.37101 -3.06471,-1.26399 -3.90668,-2.74805 -2.92813,-5.16598 -5.86827,-10.32633 -8.76187,-15.51065 -4.664601,-8.35135 -6.434078,-17.37702 -6.956372,-26.16145 z"
   id="path23"
   style="stroke-width:1.45507" />
<path
   fill-rule="evenodd"
   clip-rule="evenodd"
   fill="#f2c31a"
   d="m 101.57784,524.97012 c 1.25469,-10.07522 1.91807,-20.66676 6.85581,-30.27222 2.80206,-5.44954 6.59016,-10.45894 10.04508,-15.59954 0.42024,-0.62635 1.50384,-1.08906 2.3443,-1.20333 9.47027,-1.28091 18.42425,-4.13617 26.98201,-8.0283 3.21179,-1.46007 6.0979,-3.56625 9.07556,-5.45518 1.52634,-0.96774 3.2598,-2.26559 4.82518,-0.96492 1.55186,1.29079 0.60483,3.17267 -0.41124,4.62569 -7.11245,10.17679 -9.14008,21.66273 -9.83496,33.49992 -0.0661,1.12714 -0.0961,2.25854 -0.22813,3.37721 -0.27616,2.3714 -1.4303,4.10374 -3.65003,5.48905 -5.19138,3.24179 -10.16065,6.79534 -15.29951,10.11332 -8.31012,5.36348 -17.84492,7.59238 -27.57484,9.23585 -2.41784,0.4077 -3.01368,-0.14953 -3.12623,-2.44052 -0.03,-0.67572 -0.002,-1.35426 -0.002,-2.37703 z"
   id="path24"
   style="stroke-width:1.45507" />
<path
   fill-rule="evenodd"
   clip-rule="evenodd"
   fill="#f2c31a"
   d="m 494.23371,111.88864 c -1.69293,9.09338 -2.85758,19.28711 -8.2816,28.28456 -2.76154,4.58337 -6.28849,8.7675 -9.64587,13.0109 -0.57931,0.73215 -1.9991,1.00583 -3.09321,1.2259 -4.6751,0.94517 -9.41474,1.63641 -14.05532,2.71136 -6.78678,1.57435 -13.21335,4.02473 -18.94954,7.88442 -1.40328,0.94375 -3.13224,1.95098 -4.51751,0.59954 -1.36726,-1.33452 -0.27766,-2.95824 0.73391,-4.26596 6.54363,-8.46986 9.3487,-18.1515 10.4458,-28.39037 0.0481,-0.4486 0.1621,-0.89296 0.17711,-1.34157 0.13807,-4.37458 1.8025,-7.62202 6.37855,-9.62944 3.54496,-1.55459 6.64719,-3.99652 9.97303,-6.00395 8.58028,-5.18291 18.20813,-7.30743 28.16617,-8.42893 2.46587,-0.2765 2.89811,0.32304 2.66848,4.34354 z"
   id="path25"
   style="stroke-width:1.45507" />
</svg>
